<svg xmlns="http://www.w3.org/2000/svg" xmlns:xlink="http://www.w3.org/1999/xlink" viewBox="0 0 246.33 207.89"><defs><style>.cls-1{isolation:isolate;}.cls-2{mix-blend-mode:multiply;fill:url(#radial-gradient);}.cls-3{fill:#003538;}.cls-4{fill:#ededed;}.cls-5{fill:url(#radial-gradient-2);}.cls-6{fill:url(#linear-gradient);}.cls-7{fill:url(#linear-gradient-2);}.cls-8{fill:url(#linear-gradient-3);}.cls-9{fill:url(#linear-gradient-4);}.cls-10{fill:url(#linear-gradient-5);}.cls-11{fill:url(#linear-gradient-6);}.cls-12{fill:#fff;}</style><radialGradient id="radial-gradient" cx="100.49" cy="107.4" r="100.49" gradientUnits="userSpaceOnUse"><stop offset="0.75" stop-color="#ababab"/><stop offset="0.77" stop-color="#b6b6b6"/><stop offset="0.83" stop-color="#d6d6d6"/><stop offset="0.89" stop-color="#ededed"/><stop offset="0.95" stop-color="#fafafa"/><stop offset="1" stop-color="#fff"/></radialGradient><radialGradient id="radial-gradient-2" cx="142.11" cy="143.33" r="51.2" gradientTransform="translate(248.96 -27.91) rotate(76.72)" gradientUnits="userSpaceOnUse"><stop offset="0.39" stop-color="#046a38"/><stop offset="0.57" stop-color="#046435"/><stop offset="0.82" stop-color="#03522c"/><stop offset="1" stop-color="#034223"/></radialGradient><linearGradient id="linear-gradient" x1="101.02" y1="85.12" x2="333.32" y2="189.86" gradientUnits="userSpaceOnUse"><stop offset="0" stop-color="#a4d672"/><stop offset="0.44" stop-color="#56b03d"/><stop offset="0.82" stop-color="#189213"/><stop offset="1" stop-color="#008603"/></linearGradient><linearGradient id="linear-gradient-2" x1="238.72" y1="49.95" x2="181.79" y2="178.03" xlink:href="#linear-gradient"/><linearGradient id="linear-gradient-3" x1="193.77" y1="144.58" x2="133.18" y2="254.28" xlink:href="#linear-gradient"/><linearGradient id="linear-gradient-4" x1="-5.1" y1="105.19" x2="222.69" y2="207.89" xlink:href="#linear-gradient"/><linearGradient id="linear-gradient-5" x1="107.24" y1="121.12" x2="88.76" y2="162.71" xlink:href="#linear-gradient"/><linearGradient id="linear-gradient-6" x1="95.75" y1="153.48" x2="79.75" y2="182.47" xlink:href="#linear-gradient"/></defs><g class="cls-1"><g id="Layer_1" data-name="Layer 1"><circle class="cls-2" cx="100.49" cy="107.4" r="100.49"/><circle class="cls-3" cx="142.11" cy="143.33" r="91.09" transform="translate(-93.46 90.22) rotate(-45)"/><circle class="cls-4" cx="108.38" cy="91.09" r="56.85"/><circle class="cls-5" cx="142.11" cy="143.33" r="51.2" transform="translate(-63.77 196.46) rotate(-76.72)"/><path class="cls-6" d="M280.06,70.38h0a75.38,75.38,0,0,1-8,10.43c-9.33,10.69-28,28.72-62,49.92-55.05,34.32-71.93,46.16-85.17,60.64,0-.08.4-1,1.15-2.67,4-8.69,19-37.1,53.88-63.48C221.82,93.61,244.89,97.92,280.06,70.38Z" transform="translate(-33.73 -52.24)"/><path class="cls-7" d="M280.06,70.38c-.28.91-15.76,49.7-64.08,80.93-43.54,28.15-69.55,26.16-85.68,36a31.75,31.75,0,0,0-5.38,4.1c13.24-14.48,30.12-26.32,85.17-60.64,34-21.2,52.68-39.23,62-49.92A75.38,75.38,0,0,0,280.06,70.38Z" transform="translate(-33.73 -52.24)"/><path class="cls-8" d="M273.28,79.06a4.35,4.35,0,0,1-.25.42c-.18.27-.44.66-.83,1.19l-.1.14c-.77,1-2,2.5-3.61,4.32s-4,4.19-6.64,6.72-5.8,5.31-9.28,8.24c-6.95,5.86-15.29,12.28-24.28,18.74-4.49,3.23-9.14,6.47-13.87,9.68s-9.5,6.38-14.29,9.58L172,156.73c-8.95,5.94-17.3,11.53-24.35,16.55-3.52,2.51-6.7,4.9-9.44,7.08s-5,4.17-6.81,5.85l-1.13,1.06a31.75,31.75,0,0,0-5.38,4.1c0-.08.4-1,1.15-2.67,1-1,2.23-2.22,3.8-3.67,2.06-1.89,4.63-4.1,7.61-6.43s6.33-4.8,10-7.34c7.27-5.1,15.67-10.61,24.64-16.46l28.08-18.29c4.77-3.13,9.56-6.25,14.24-9.36s9.29-6.27,13.74-9.4c8.9-6.29,17.17-12.53,24-18.23,3.43-2.84,6.52-5.54,9.17-8s4.84-4.67,6.55-6.5,2.89-3.3,3.62-4.27c.37-.49.61-.85.78-1.09s.21-.34.22-.35a1.23,1.23,0,0,1,.57-.49C273.32,78.75,273.39,78.86,273.28,79.06Z" transform="translate(-33.73 -52.24)"/><path class="cls-9" d="M125.08,191.4s-.64-.07-1.77-.29a60,60,0,0,1-37-25.24c-15.61-22.94-8.07-39.68-21.9-58.77a26,26,0,0,1,6.25,3.54c6.18,4.42,16.06,13.93,25.41,33.4C111.2,175.57,116.81,185,125.08,191.4Z" transform="translate(-33.73 -52.24)"/><path class="cls-10" d="M125.08,191.4c-8.27-6.41-13.88-15.83-29-47.36-9.35-19.47-19.23-29-25.41-33.4a26,26,0,0,0-6.25-3.54s33.82,1.27,48.06,29c12.72,24.77,6.33,43.1,10.6,52.38A9.47,9.47,0,0,0,125.08,191.4Z" transform="translate(-33.73 -52.24)"/><path class="cls-11" d="M125.08,191.4s-.64-.07-1.77-.29c-.54-.49-1.23-1.12-2-1.94a38.58,38.58,0,0,1-3.35-4c-1.16-1.62-2.37-3.47-3.58-5.5-2.41-4.06-4.92-8.82-7.58-13.91L98.48,149.8c-1.41-2.71-2.84-5.43-4.27-8.07s-2.91-5.24-4.4-7.72a123.7,123.7,0,0,0-9-13.16c-1.47-1.84-2.89-3.46-4.22-4.83a40.26,40.26,0,0,0-3.6-3.29A18.24,18.24,0,0,0,70.5,111l-.66-.33-.22-.08a.39.39,0,0,1-.25-.31c0-.13.08-.2.21-.16a1.42,1.42,0,0,1,.26.1,7.79,7.79,0,0,1,.72.34l.09,0a18.9,18.9,0,0,1,2.53,1.68,36.51,36.51,0,0,1,3.74,3.31c1.38,1.38,2.86,3,4.38,4.86a126.88,126.88,0,0,1,9.35,13.22c1.55,2.49,3.08,5.09,4.58,7.75s3,5.36,4.42,8.07c2.92,5.4,5.83,10.81,8.56,15.87s5.31,9.78,7.71,13.7c1.21,2,2.38,3.7,3.48,5.18a33.93,33.93,0,0,0,3.06,3.6l.6.59A9.47,9.47,0,0,0,125.08,191.4Z" transform="translate(-33.73 -52.24)"/><circle class="cls-4" cx="47.83" cy="48.49" r="3.02"/><path class="cls-4" d="M209,100.74a3,3,0,1,1-3-3A3,3,0,0,1,209,100.74Z" transform="translate(-33.73 -52.24)"/><path class="cls-4" d="M89,195.11a3,3,0,1,1-3-3A3,3,0,0,1,89,195.11Z" transform="translate(-33.73 -52.24)"/><path class="cls-4" d="M201.26,195.11a3,3,0,1,1-3-3A3,3,0,0,1,201.26,195.11Z" transform="translate(-33.73 -52.24)"/><path class="cls-12" d="M89.15,99.12q-1.94-4.8-3.42-9.88c.62-.59,1.25-1.18,1.89-1.75a100.72,100.72,0,0,1,9.49,4.28c-.6.48-1.2,1-1.79,1.48-.83-.4-1.67-.78-2.51-1.15q-1.75,1.53-3.44,3.2c.31.87.62,1.74.95,2.6C89.93,98.3,89.54,98.7,89.15,99.12ZM88.92,94c.86-.84,1.73-1.65,2.62-2.44C90.27,91,89,90.5,87.67,90,88.07,91.35,88.48,92.67,88.92,94Z" transform="translate(-33.73 -52.24)"/><path class="cls-12" d="M97.38,91.56c-.84-3.33-1.52-6.74-2-10.2q1-.72,2.07-1.41a101.17,101.17,0,0,1,8.68,5.67c-.66.38-1.3.77-1.94,1.17-.76-.52-1.52-1-2.29-1.52-1.28.82-2.54,1.69-3.77,2.59.18.91.37,1.8.58,2.7C98.24,90.88,97.8,91.22,97.38,91.56Zm.44-5c1-.68,1.9-1.34,2.87-2-1.17-.72-2.35-1.43-3.56-2.11C97.33,83.79,97.57,85.16,97.82,86.51Z" transform="translate(-33.73 -52.24)"/><path class="cls-12" d="M109.69,83.65Q107.86,80,106,76.43c-1.24.63-2.47,1.3-3.68,2l-.64-1.13a82.85,82.85,0,0,1,9.78-4.82l.5,1.2c-1.27.53-2.54,1.09-3.79,1.68l3.47,7.32C111,83,110.34,83.31,109.69,83.65Z" transform="translate(-33.73 -52.24)"/><path class="cls-12" d="M116.43,80.62q-1.73-4.38-3.43-8.75c1-.39,2-.77,3-1.12q2.42,2.66,4.64,5.43.28-3.56.81-7.12c.91-.25,1.82-.48,2.73-.7.73,3,1.45,6.1,2.18,9.14l-1.92.49-1.83-6.85c-.34,2.31-.6,4.63-.79,6.94l-1.67.52c-1.47-1.81-3-3.59-4.62-5.33Q116.78,76.65,118,80Z" transform="translate(-33.73 -52.24)"/><path class="cls-12" d="M127.79,77.18c.64-3.34,1.45-6.69,2.43-10,.79-.13,1.59-.24,2.39-.35a102.65,102.65,0,0,1,5.22,8.89l-2.18.2c-.45-.79-.91-1.58-1.38-2.36q-2.18.27-4.35.66-.31,1.33-.6,2.67Zm2.46-4.31c1.1-.19,2.21-.36,3.32-.5-.72-1.17-1.46-2.32-2.23-3.47C131,70.22,130.59,71.55,130.25,72.87Z" transform="translate(-33.73 -52.24)"/><path class="cls-12" d="M139.28,75.6l-.57-9.38c.71,0,1.42-.08,2.12-.1A80.74,80.74,0,0,1,146,72.51l.18-6.41c.64,0,1.29,0,1.93.08l-.48,9.38-1.92-.08a79.34,79.34,0,0,0-5-6.38q.12,3.21.25,6.41C140.42,75.54,139.85,75.56,139.28,75.6Z" transform="translate(-33.73 -52.24)"/><path class="cls-12" d="M150.2,75.73c.27-3.12.53-6.24.8-9.36q1.2.1,2.4.24c-.36,3.11-.71,6.22-1.07,9.33Q151.26,75.82,150.2,75.73Z" transform="translate(-33.73 -52.24)"/><path class="cls-12" d="M154.89,76.28,156.27,67c1.44.21,2.86.46,4.28.74a5.63,5.63,0,0,1,1.93.69,2.4,2.4,0,0,1,.88,1,2,2,0,0,1,.09,1.29,2.6,2.6,0,0,1-.92,1.39,3.76,3.76,0,0,1-1.79.74c.85,1.68,1.64,3.37,2.35,5.08-.84-.23-1.69-.44-2.54-.63q-.83-2.16-1.78-4.3l-1.22-.22c-.22,1.26-.45,2.52-.67,3.78C156.22,76.48,155.55,76.38,154.89,76.28Zm2.88-4.73.52.09a2.92,2.92,0,0,0,2-.14,1.63,1.63,0,0,0,.79-1,1.07,1.07,0,0,0-.25-1,3.31,3.31,0,0,0-1.75-.7l-.82-.14Z" transform="translate(-33.73 -52.24)"/><path class="cls-12" d="M164.51,78.36l2.59-9c1.26.36,2.52.76,3.76,1.18a5.78,5.78,0,0,1,1.91.94,2.32,2.32,0,0,1,.74,1.08,1.77,1.77,0,0,1,0,1.14,2.05,2.05,0,0,1-1,1.06,4.67,4.67,0,0,1-2.32.27,5.54,5.54,0,0,1,1.5,1.19,2.62,2.62,0,0,1,.57,1.16,2,2,0,0,1-.1,1.13,2.15,2.15,0,0,1-.78,1,2.42,2.42,0,0,1-1.23.43,5.1,5.1,0,0,1-1.92-.37C167,79.09,165.73,78.71,164.51,78.36Zm3.64-4.64.47.16a2.55,2.55,0,0,0,1.64.08,1.38,1.38,0,0,0,.85-.85,1,1,0,0,0,0-.6,1.09,1.09,0,0,0-.4-.55,5.56,5.56,0,0,0-1.41-.61l-.4-.13C168.68,72.06,168.42,72.89,168.15,73.72Zm-1.25,4,.4.13a6.93,6.93,0,0,0,1.52.37,1.26,1.26,0,0,0,.74-.2,1.09,1.09,0,0,0,.42-.55,1.39,1.39,0,0,0-.27-1.35,3.1,3.1,0,0,0-1.56-1l-.38-.12Z" transform="translate(-33.73 -52.24)"/><path class="cls-12" d="M173.05,81.37l3.66-8.66c.75.32,1.5.65,2.24,1l-1.59,3.47q2.12,1,4.18,2.06l1.79-3.37c.72.38,1.45.78,2.16,1.19l-4.64,8.17c-.63-.36-1.28-.72-1.92-1.06l2-3.79q-2-1.07-4.12-2L175,82.24C174.38,81.94,173.71,81.65,173.05,81.37Z" transform="translate(-33.73 -52.24)"/><path class="cls-12" d="M182.14,86a100,100,0,0,1,8.74-5.59c.69.47,1.38,1,2.06,1.44Q192.11,87,190.8,92c-.6-.49-1.2-1-1.82-1.43.21-.89.4-1.79.59-2.69-1.24-.9-2.49-1.77-3.77-2.59-.77.49-1.53,1-2.29,1.51ZM187,84.55c1,.64,1.92,1.3,2.87,2,.25-1.36.48-2.72.69-4.09C189.32,83.12,188.13,83.83,187,84.55Z" transform="translate(-33.73 -52.24)"/><path class="cls-12" d="M192,93l6-7.2q1.75,1.47,3.44,3.06a6.29,6.29,0,0,1,1.38,1.69,2.47,2.47,0,0,1,.25,1.41,2,2,0,0,1-.59,1.18,2.41,2.41,0,0,1-1.53.65,3.83,3.83,0,0,1-2-.39q-.15,2.91-.5,5.75c-.65-.69-1.3-1.36-2-2,.25-1.56.46-3.13.62-4.72-.32-.3-.65-.59-1-.88l-2.55,2.87C193.07,93.89,192.53,93.43,192,93Zm5-2.44.41.38a3.27,3.27,0,0,0,1.9,1,1.62,1.62,0,0,0,1.25-.46,1,1,0,0,0,.28-1,3.71,3.71,0,0,0-1.21-1.6l-.65-.58Z" transform="translate(-33.73 -52.24)"/><path class="cls-12" d="M106.07,215.24,112,202.07c.93.42,1.86.81,2.79,1.19l-2.64,6.5a77.82,77.82,0,0,0,7.89-4.58c.81.27,1.63.52,2.45.76a81.07,81.07,0,0,1-7,4.52,86,86,0,0,0,4.38,9.76c-1.47-.4-2.93-.84-4.39-1.31a89.33,89.33,0,0,1-3.47-8.84c-.89,2.19-1.79,4.39-2.68,6.59C108.26,216.21,107.16,215.74,106.07,215.24Z" transform="translate(-33.73 -52.24)"/><path class="cls-12" d="M122.6,220.91l3.39-14c1.81.44,3.64.81,5.47,1.12a6.83,6.83,0,0,1,2.52.8,3.32,3.32,0,0,1,1.27,1.43,3.56,3.56,0,0,1,.32,1.95,3.93,3.93,0,0,1-1.07,2.29,4.75,4.75,0,0,1-2.52,1.41q2.16,3.72,4.75,7.33c-1.48-.12-3-.28-4.44-.47q-1.78-3.22-3.28-6.49-.93-.16-1.86-.36L126,221.66C124.85,221.43,123.72,221.18,122.6,220.91Zm4.94-7,.76.15a3.75,3.75,0,0,0,3-.31,2.54,2.54,0,0,0,1.05-1.69,1.8,1.8,0,0,0-.4-1.49,4.29,4.29,0,0,0-2.37-.94l-1.09-.21Z" transform="translate(-33.73 -52.24)"/><path class="cls-12" d="M139.22,223.37q.42-7.22.82-14.43c1,.06,2.06.09,3.09.11q-.12,7.23-.25,14.45C141.66,223.48,140.44,223.44,139.22,223.37Z" transform="translate(-33.73 -52.24)"/><path class="cls-12" d="M146.3,223.37c0-.83,0-1.65-.05-2.48a14.46,14.46,0,0,0,3,.74,11.61,11.61,0,0,0,1.85,0,3.61,3.61,0,0,0,2.19-.76,1.63,1.63,0,0,0,.6-1.43,1.65,1.65,0,0,0-.52-1,7.17,7.17,0,0,0-2.06-1.06l-1.15-.46a9,9,0,0,1-3.26-2,3.42,3.42,0,0,1-.87-2.27,3.72,3.72,0,0,1,1.24-2.82,5.7,5.7,0,0,1,3.63-1.38,24.51,24.51,0,0,1,4.07.06l.31,2.29a14.29,14.29,0,0,0-3.83-.41,2.85,2.85,0,0,0-1.71.61,1.38,1.38,0,0,0-.1,2.09,6.28,6.28,0,0,0,1.94,1.07l1.2.47a11.81,11.81,0,0,1,3.67,1.9,3.71,3.71,0,0,1,1.06,2.11,3.62,3.62,0,0,1-1.18,3.22c-1,1-2.67,1.61-5.08,1.78A22.66,22.66,0,0,1,146.3,223.37Z" transform="translate(-33.73 -52.24)"/><path class="cls-12" d="M161.11,222q-1.28-7.11-2.57-14.23c1-.18,2-.38,3.05-.61q.63,2.87,1.27,5.73,3.24-.72,6.43-1.69-.85-2.8-1.72-5.62c1-.3,2-.62,3-1l4.77,13.64c-1.17.41-2.34.8-3.52,1.16-.64-2.11-1.29-4.21-1.93-6.31-2.17.67-4.37,1.25-6.58,1.74.47,2.14,1,4.29,1.43,6.43C163.52,221.57,162.32,221.81,161.11,222Z" transform="translate(-33.73 -52.24)"/><path class="cls-12" d="M179.49,216.71q-2.7-6.71-5.41-13.4c1-.39,1.94-.81,2.9-1.24q3,6.59,6,13.17C181.79,215.76,180.65,216.24,179.49,216.71Z" transform="translate(-33.73 -52.24)"/></g></g></svg>